<svg width="28" height="28" viewBox="0 0 28 28" fill="none" xmlns="http://www.w3.org/2000/svg">
<g clip-path="url(#clip0_6069_2480)">
<path d="M14.9627 7.32812L14.1314 8.15937L19.5127 13.5625H5.27207V14.7219H19.3377L14.1314 19.9719L14.9627 20.8031L21.6783 14.0656L21.6564 14.0437L21.6783 14.0219L14.9627 7.32812ZM14.0221 0C6.30019 0 0.0439453 6.27813 0.0439453 14C0.0439453 21.7219 6.30019 28 14.0221 28C21.7439 28 28.0002 21.7219 28.0002 14C27.9783 6.27813 21.7221 0 14.0221 0ZM14.0221 26.8406C6.93457 26.8406 1.20332 21.0875 1.20332 14C1.20332 6.9125 6.93457 1.15938 14.0221 1.15938C21.0877 1.15938 26.8408 6.9125 26.8408 14C26.8189 21.0875 21.0877 26.8406 14.0221 26.8406Z" fill="#184027"/>
</g>
<defs>
<clipPath id="clip0_6069_2480">
<rect width="28" height="28" fill="white"/>
</clipPath>
</defs>
</svg>
