<svg width="267" height="251" viewBox="0 0 267 251" fill="none" xmlns="http://www.w3.org/2000/svg">
<path d="M23.0808 206.699C15.3659 147.053 45.4375 79.6782 94.3094 43.6142C126.991 19.4977 135.673 162.087 137.02 172.497C140.133 196.57 147.582 255.917 180.532 224.209C210.404 195.464 220.814 129.372 227.91 90.2494C232.54 64.7221 234.524 38.3763 239.486 13" stroke="#ABAADE" stroke-width="25" stroke-linecap="round"/>
<path d="M21.0808 199.699C13.3659 140.053 43.4375 72.6782 92.3094 36.6142C124.991 12.4977 133.673 155.087 135.02 165.497C138.133 189.57 145.582 248.917 178.532 217.209C208.404 188.464 218.814 122.372 225.91 83.2494C230.54 57.7221 232.524 31.3763 237.486 6" stroke="#184027" stroke-width="8" stroke-linecap="round"/>
</svg>
