<svg width="58" height="55" viewBox="0 0 58 55" fill="none" xmlns="http://www.w3.org/2000/svg">
<path d="M7.67802 41.2268C6.3083 30.6372 11.6472 18.6755 20.324 12.2726C26.1263 7.99096 27.6678 33.3064 27.9068 35.1546C28.4596 39.4286 29.782 49.965 35.6321 44.3356C40.9355 39.2322 42.7838 27.4982 44.0436 20.5523C44.8656 16.0201 45.2178 11.3427 46.0989 6.83735" stroke="#F0C1E3" stroke-width="12" stroke-linecap="round"/>
<path d="M4.60884 45.3478C2.92215 32.3076 9.49661 17.5777 20.1813 9.69311C27.3264 4.42057 29.2246 35.5945 29.5189 37.8704C30.1997 43.1334 31.8281 56.1082 39.032 49.176C45.5627 42.8916 47.8387 28.4421 49.3901 19.8888C50.4023 14.3079 50.836 8.54795 51.921 3" stroke="black" stroke-width="3" stroke-linecap="round"/>
</svg>
